<?xml version="1.0" standalone="no"?>
<!DOCTYPE svg PUBLIC "-//W3C//DTD SVG 20010904//EN"
 "http://www.w3.org/TR/2001/REC-SVG-20010904/DTD/svg10.dtd">
 <!-- #115EEB -->
<svg version="1.0" xmlns="http://www.w3.org/2000/svg"
 width="1080.000000pt" height="1080.000000pt" viewBox="0 0 1080.000000 1080.000000"
 preserveAspectRatio="xMidYMid meet">

<g transform="translate(0.000000,1080.000000) scale(0.100000,-0.100000)"
fill="#29319f" stroke="none">
<path d="M5555 8581 c-64 -18 -163 -61 -192 -83 -68 -52 -172 -170 -200 -228
-54 -108 -63 -149 -63 -284 0 -131 9 -170 65 -292 36 -75 176 -217 255 -256
136 -67 62 -63 1045 -63 837 0 894 1 950 18 177 55 303 160 383 320 52 106 64
159 59 282 -5 150 -16 190 -86 310 -57 99 -176 203 -284 248 -112 47 -106 47
-1015 46 -773 -1 -863 -3 -917 -18z m1788 -92 c180 -28 335 -162 400 -347 29
-81 28 -246 -1 -320 -33 -84 -71 -143 -132 -202 -69 -68 -139 -107 -237 -131
-71 -18 -127 -19 -910 -19 -733 0 -841 2 -886 16 -173 53 -285 156 -353 325
-35 85 -38 244 -8 329 64 183 225 324 396 348 95 14 1643 15 1731 1z"/>
<path d="M5880 8101 c-59 -9 -103 -33 -156 -87 -50 -49 -57 -84 -22 -108 31
-22 33 -21 86 27 65 59 84 67 147 67 62 0 115 -22 155 -65 48 -52 83 -54 101
-8 16 44 -33 104 -126 154 -36 20 -123 29 -185 20z"/>
<path d="M6975 8100 c-90 -11 -205 -100 -205 -160 0 -13 37 -50 50 -50 6 0 29
17 53 38 68 61 91 72 152 72 65 0 102 -17 162 -71 48 -44 50 -45 81 -23 34 24
28 59 -20 107 -77 76 -156 102 -273 87z"/>
<path d="M2955 6926 c-144 -38 -195 -84 -246 -228 -25 -69 -29 -97 -28 -163 1
-44 -1 -92 -5 -106 -6 -22 3 -36 86 -116 51 -50 118 -117 149 -149 30 -33 75
-76 100 -96 l44 -38 163 0 c101 0 162 -4 162 -10 0 -6 -61 -10 -164 -10 l-164
0 -63 53 c-34 28 -80 70 -101 92 -107 110 -140 143 -177 172 l-40 33 -8 -58
c-10 -70 -9 -575 3 -1102 l9 -395 51 -6 c94 -12 125 -49 123 -152 l-2 -62 -8
69 c-5 49 -14 75 -30 92 -25 27 -81 41 -111 27 -19 -8 -20 -18 -21 -228 l-2
-220 -325 -5 c-368 -6 -365 -5 -401 -83 -28 -63 -27 -271 1 -328 33 -64 68
-79 185 -79 65 0 105 -4 113 -12 17 -17 17 -269 0 -286 -8 -8 -48 -12 -112
-12 -89 0 -106 -3 -140 -24 -43 -26 -74 -86 -75 -143 -1 -24 -7 -33 -23 -39
-35 -11 -1350 7 -1373 18 -41 21 -75 63 -91 112 -16 46 -17 120 -11 876 l6
825 21 17 c12 10 31 18 41 18 55 0 156 100 189 187 96 258 -171 508 -422 394
-67 -30 -120 -76 -145 -124 -41 -81 -54 -187 -31 -256 15 -42 64 -119 93 -144
27 -23 91 -57 108 -57 8 0 22 -9 32 -20 16 -18 17 -66 14 -867 -4 -824 -3
-850 16 -893 32 -74 74 -121 135 -149 l55 -26 680 -5 c374 -4 686 -9 692 -13
7 -4 15 -24 19 -45 9 -52 29 -87 63 -111 28 -20 41 -21 376 -21 204 0 354 -4
364 -10 10 -5 33 -31 50 -58 44 -68 106 -111 182 -123 75 -12 229 3 280 27 43
21 106 80 126 118 24 47 53 140 61 203 4 32 5 324 1 648 -4 325 -5 592 -2 595
2 2 34 -27 71 -65 37 -39 123 -128 192 -200 69 -71 211 -220 315 -330 105
-110 242 -254 306 -320 241 -251 298 -312 349 -372 55 -65 163 -152 240 -194
25 -13 48 -28 52 -34 4 -5 51 -10 105 -10 112 0 149 13 241 88 97 78 138 209
96 305 -43 99 -61 132 -102 187 -46 61 -150 184 -187 220 -11 11 -53 58 -94
105 -199 229 -350 389 -765 814 -193 197 -352 365 -354 372 -2 8 131 150 295
316 164 167 391 398 505 513 391 397 439 449 434 469 -8 30 12 56 42 56 21 0
36 13 69 60 23 33 49 76 58 96 19 46 19 123 0 160 -16 32 -95 116 -137 146
l-28 19 0 -46 c0 -28 -4 -44 -10 -40 -5 3 -8 25 -6 49 4 38 1 44 -22 58 -15 9
-50 21 -79 28 -62 16 -144 2 -209 -37 l-42 -24 1 -160 c0 -93 -4 -164 -10
-170 -7 -7 -10 44 -10 150 1 89 -3 164 -7 168 -15 16 -87 -38 -231 -173 -183
-171 -593 -578 -776 -769 -74 -77 -172 -176 -219 -220 l-85 -79 -7 455 c-9
575 -16 653 -61 752 -37 80 -62 104 -143 135 -65 26 -195 35 -259 18z m1 -188
c38 -34 106 -99 152 -145 l83 -82 77 -4 77 -3 -85 -2 -85 -2 -85 88 c-47 49
-111 112 -143 140 -56 51 -59 52 -118 52 -37 0 -58 4 -54 10 3 6 30 10 60 10
51 0 56 -2 121 -62z m2168 -85 c2 -32 7 -70 11 -83 7 -24 7 -24 -9 -5 -10 14
-15 42 -16 89 0 83 10 82 14 -1z m76 -153 c0 -5 -2 -10 -4 -10 -3 0 -8 5 -11
10 -3 6 -1 10 4 10 6 0 11 -4 11 -10z m-430 -83 c0 -40 5 -47 95 -137 86 -86
95 -98 94 -130 -2 -34 -2 -34 -6 -5 -3 22 -33 58 -104 131 -97 99 -99 102 -99
148 0 29 4 45 10 41 6 -3 10 -25 10 -48z m-415 -76 l50 -50 132 -9 133 -10 70
-70 c38 -38 70 -76 70 -84 0 -8 3 -18 7 -21 3 -4 6 -23 6 -42 -2 -62 -6 -61
-13 4 -7 63 -9 65 -76 131 l-69 67 -135 7 -135 7 -52 52 c-50 48 -63 67 -46
67 4 0 30 -22 58 -49z m-355 -259 c0 -14 -36 -43 -43 -35 -4 3 0 15 10 25 17
19 33 24 33 10z m115 -102 c18 -20 18 -21 -5 -45 -22 -23 -25 -24 -42 -8 -23
20 -23 49 0 62 24 14 26 14 47 -9z m393 -52 c3 -30 13 -46 58 -88 31 -27 49
-50 42 -50 -8 0 -34 20 -58 45 -33 34 -52 45 -75 45 -36 0 -55 15 -55 45 0 30
20 46 55 43 27 -3 30 -7 33 -40z m-608 -140 c0 -27 -8 -42 -37 -69 l-38 -34
30 33 c42 47 40 91 -8 140 -20 21 -37 42 -37 47 0 6 21 -11 45 -37 35 -36 45
-54 45 -80z m-560 45 c27 -19 51 -46 45 -52 -2 -2 -18 8 -35 23 -30 25 -36 26
-159 26 l-127 0 -71 -67 c-166 -160 -154 -153 -244 -153 -46 0 -79 4 -79 10 0
6 31 10 74 10 73 0 76 1 123 41 26 23 64 58 83 78 19 20 52 51 73 69 l38 32
127 0 c104 0 132 -3 152 -17z m1013 -10 c-13 -2 -35 -2 -50 0 -16 2 -5 4 22 4
28 0 40 -2 28 -4z m-174 -87 c-178 -179 -262 -260 -254 -246 14 24 319 329
329 330 5 0 -29 -38 -75 -84z m257 62 l19 -23 -25 20 c-14 11 -27 21 -29 22
-2 2 0 3 6 3 5 0 18 -10 29 -22z m-801 -97 c-3 -6 -11 -11 -16 -11 -5 0 -4 6
3 14 14 16 24 13 13 -3z m-3139 -46 c22 -13 54 -43 70 -67 25 -38 29 -52 28
-113 0 -81 -16 -117 -70 -164 -47 -42 -73 -51 -142 -51 -179 0 -274 201 -165
348 13 18 36 40 50 49 58 38 161 37 229 -2z m3834 -45 c0 -5 -10 -10 -22 -9
-22 0 -22 1 -3 9 11 5 21 9 23 9 1 1 2 -3 2 -9z m83 -7 c-7 -2 -19 -2 -25 0
-7 3 -2 5 12 5 14 0 19 -2 13 -5z m-143 -23 c0 -5 -5 -10 -11 -10 -5 0 -7 5
-4 10 3 6 8 10 11 10 2 0 4 -4 4 -10z m-30 -30 c0 -5 -5 -10 -11 -10 -5 0 -7
5 -4 10 3 6 8 10 11 10 2 0 4 -4 4 -10z m-30 -30 c0 -5 -5 -10 -11 -10 -5 0
-7 5 -4 10 3 6 8 10 11 10 2 0 4 -4 4 -10z m-733 -97 c-3 -10 -5 -4 -5 12 0
17 2 24 5 18 2 -7 2 -21 0 -30z m-250 -15 c19 -18 34 -21 88 -20 36 0 65 -3
65 -7 0 -5 -22 -13 -50 -18 -27 -6 -47 -6 -44 -1 13 20 -26 5 -54 -22 -36 -34
-48 -36 -80 -14 -15 10 -22 25 -22 49 0 55 54 73 97 33z m250 -70 c-2 -13 -4
-3 -4 22 0 25 2 35 4 23 2 -13 2 -33 0 -45z m3 -53 c0 -8 -4 -15 -10 -15 -5 0
-10 7 -10 15 0 8 5 15 10 15 6 0 10 -7 10 -15z m487 -47 c-3 -7 -5 -2 -5 12 0
14 2 19 5 13 2 -7 2 -19 0 -25z m-487 0 c1 -7 15 -22 33 -33 29 -19 32 -25 32
-71 0 -44 4 -54 37 -87 36 -36 39 -37 112 -37 41 0 78 -5 81 -10 4 -7 -23 -8
-82 -4 -89 6 -153 32 -153 61 0 8 -19 11 -59 9 -52 -1 -62 -5 -85 -33 -14 -17
-26 -38 -26 -47 0 -9 -6 -16 -14 -16 -22 0 -30 -19 -36 -85 l-6 -60 -5 48 c-2
28 2 67 9 92 14 42 14 43 -17 72 -38 37 -39 62 -5 102 20 24 34 31 62 32 29 1
44 9 72 39 38 41 50 47 50 28z m-283 -24 c10 4 -6 -18 -36 -48 -47 -48 -54
-60 -59 -104 -2 -27 1 -59 7 -71 8 -14 8 -21 1 -21 -7 0 -11 -102 -12 -302
l-2 -303 -6 325 c-5 339 -1 431 18 438 17 5 15 27 -3 42 -14 12 -13 16 11 41
26 27 29 28 45 13 11 -10 25 -14 36 -10z m108 16 c4 -6 -11 -10 -37 -10 -31 0
-39 3 -28 10 20 13 57 13 65 0z m362 -62 c-3 -8 -6 -5 -6 6 -1 11 2 17 5 13 3
-3 4 -12 1 -19z m-799 -95 l3 -43 -40 0 c-41 0 -41 0 -41 38 0 47 6 54 45 50
28 -3 30 -6 33 -45z m562 -159 c0 -8 -4 -12 -10 -9 -5 3 -10 10 -10 16 0 5 5
9 10 9 6 0 10 -7 10 -16z m190 -123 c0 -6 -17 -7 -37 -4 -52 8 -54 13 -5 13
23 0 42 -4 42 -9z m247 -17 c-3 -3 -12 -4 -19 -1 -8 3 -5 6 6 6 11 1 17 -2 13
-5z m-549 -29 c-3 -3 -9 2 -12 12 -6 14 -5 15 5 6 7 -7 10 -15 7 -18z m-1 -57
c-3 -8 -6 -5 -6 6 -1 11 2 17 5 13 3 -3 4 -12 1 -19z m789 -95 c45 -49 58 -57
88 -57 20 0 36 -4 36 -9 0 -9 -79 -4 -83 5 -1 2 -27 29 -57 61 -30 31 -51 57
-46 57 5 0 32 -26 62 -57z m-403 20 c-18 -2 -48 -2 -65 0 -18 2 -4 4 32 4 36
0 50 -2 33 -4z m328 -268 c183 -193 199 -214 199 -259 0 -22 -5 -48 -10 -56
-7 -11 -10 2 -10 42 0 61 -6 71 -100 168 -14 14 -52 55 -84 91 -33 35 -87 93
-120 129 -34 36 -70 76 -80 90 -21 27 83 -77 205 -205z m-691 10 c0 -5 -5 -3
-10 5 -5 8 -10 20 -10 25 0 6 5 3 10 -5 5 -8 10 -19 10 -25z m1059 -19 l22
-24 -22 -21 c-29 -26 -37 -26 -60 1 -23 26 -23 23 3 48 27 25 30 25 57 -4z
m-1359 -191 c0 -5 -36 26 -80 70 -44 44 -80 84 -80 89 0 4 36 -27 80 -70 44
-44 80 -83 80 -89z m136 144 c19 -22 19 -22 -3 -8 -13 8 -23 17 -23 21 0 12 6
9 26 -13z m794 -166 c0 -11 -90 80 -102 102 -5 11 16 -6 46 -38 31 -31 56 -60
56 -64z m-1294 95 c7 -12 7 -279 -1 -286 -10 -10 -620 0 -632 10 -9 7 -13 45
-13 131 0 98 3 124 17 139 15 17 38 18 319 18 218 0 305 -3 310 -12z m426
-132 c10 -19 8 -18 -16 3 -14 14 -26 29 -26 34 0 13 29 -12 42 -37z m-333 -19
c-2 -3 -15 10 -28 27 l-24 31 28 -27 c16 -15 27 -29 24 -31z m1221 -22 c0 -30
-3 -56 -7 -58 -5 -3 -8 23 -8 58 0 35 3 61 8 58 4 -2 7 -28 7 -58z m-1149 -37
c13 -18 40 -48 61 -66 35 -31 38 -38 38 -87 0 -60 7 -85 23 -85 6 0 24 -12 39
-27 35 -34 37 -81 5 -119 -19 -21 -31 -26 -68 -26 -55 1 -89 34 -89 89 0 38
31 83 57 83 9 0 13 18 13 64 l0 64 -70 74 c-38 40 -70 77 -70 81 0 15 39 -14
61 -45z m317 -211 c-2 -239 -6 -215 -10 60 -2 94 0 169 5 166 4 -2 6 -104 5
-226z m1582 196 c0 -3 -6 -14 -13 -22 -13 -15 -37 -186 -37 -257 0 -27 -12
-43 -72 -99 -40 -37 -83 -75 -96 -83 -26 -17 -105 -18 -131 -1 -12 7 -3 9 35
4 28 -3 61 -2 72 2 11 5 56 40 99 80 l80 72 6 137 c6 107 11 141 24 156 16 18
33 24 33 11z m-586 -80 c-32 -29 -62 -53 -65 -53 -3 0 22 28 55 63 34 34 63
58 65 53 2 -5 -23 -34 -55 -63z m210 14 c14 -39 -2 -61 -47 -65 -26 -2 -49
-16 -91 -56 -69 -65 -75 -49 -6 19 36 35 50 57 50 76 0 61 75 81 94 26z
m-1736 -103 l52 -7 0 -86 c0 -61 4 -93 15 -107 19 -26 19 -63 -2 -86 -14 -16
-33 -18 -159 -18 -116 0 -145 3 -158 16 -13 12 -16 40 -16 139 0 117 1 125 22
139 24 17 145 22 246 10z m2457 -252 c33 -4 53 -10 44 -13 -8 -4 -35 -4 -60
-1 -24 3 -97 6 -162 6 l-117 0 -63 -60 c-115 -111 -156 -144 -179 -144 -21 1
-20 2 7 17 17 9 74 57 129 107 l98 91 72 6 c69 7 104 5 231 -9z m-2406 -158
c3 -2 5 -32 7 -67 1 -34 6 -93 11 -132 6 -38 8 -76 5 -82 -3 -10 -77 -13 -325
-13 -284 0 -322 2 -339 17 -15 14 -18 32 -18 132 0 119 3 131 32 147 16 9 618
7 627 -2z m2695 -234 c-5 -5 -47 -9 -94 -10 -177 -3 -303 0 -296 7 4 4 89 6
190 4 129 -2 186 1 191 9 4 6 10 9 13 5 3 -3 1 -9 -4 -15z m-634 -16 c0 -14
-3 -14 -15 -4 -8 7 -15 14 -15 16 0 2 7 4 15 4 8 0 15 -7 15 -16z m193 -190
c11 -14 16 -28 13 -31 -7 -7 -56 36 -56 49 0 17 26 6 43 -18z"/>
<path d="M6405 6923 c-54 -8 -116 -33 -151 -59 -45 -35 -96 -115 -124 -194
-41 -117 -43 -194 -61 -2155 -11 -1111 -10 -1198 6 -1310 9 -66 21 -125 26
-131 5 -6 21 -33 35 -60 49 -93 96 -127 197 -144 32 -5 62 -12 67 -15 15 -9
181 25 222 46 57 29 118 108 145 186 22 62 25 93 33 348 5 154 9 459 9 677 0
218 3 505 7 637 4 133 4 241 1 241 -4 0 -15 -12 -24 -27 -14 -20 -19 -56 -24
-142 l-5 -116 -2 112 c-2 118 4 149 38 183 19 19 20 30 18 193 l-3 172 -56 -2
c-46 -1 -61 -6 -82 -27 -30 -30 -44 -32 -75 -10 -27 19 -29 64 -4 87 26 23 69
22 84 -3 11 -17 24 -20 75 -20 l63 0 2 178 c2 223 3 213 -28 240 -23 20 -34
22 -152 22 l-127 -1 -115 -109 -115 -110 -82 0 c-49 0 -83 4 -83 10 0 6 32 10
75 10 85 0 78 -4 236 147 l77 73 126 0 c95 0 135 -4 157 -15 38 -20 41 -13 37
91 l-3 79 -166 5 -166 5 -57 50 c-31 28 -73 68 -94 90 -49 53 -131 132 -181
176 -23 19 -41 44 -41 54 0 20 35 -12 257 -232 l123 -123 164 0 163 0 7 113
c4 61 6 182 6 267 -3 314 -56 442 -207 497 -40 15 -177 25 -228 16z m-47 -140
c36 -23 142 -126 137 -132 -5 -5 -12 1 -79 63 -63 60 -76 66 -139 66 -36 0
-56 4 -52 10 10 17 103 12 133 -7z m221 -208 l64 -64 76 -4 76 -3 -83 -2 -83
-2 -55 52 c-55 52 -82 88 -67 88 4 0 37 -29 72 -65z m-447 -121 c-6 -35 -12
-29 -12 14 0 23 3 32 9 24 4 -7 6 -24 3 -38z m633 -1224 c26 -7 22 -8 -22 -9
-30 0 -53 3 -53 9 0 11 31 11 75 0z m-116 -27 c-7 -10 -30 -34 -51 -54 l-38
-37 0 -218 c-1 -231 -9 -516 -16 -523 -2 -2 -4 163 -4 366 l0 371 53 56 c50
53 85 77 56 39z m-331 -130 l3 -43 -40 0 c-41 0 -41 0 -41 38 0 47 6 54 45 50
28 -3 30 -6 33 -45z m-84 -287 c56 -23 66 -48 64 -156 l-2 -95 -5 92 c-5 83
-9 95 -33 119 -21 21 -39 28 -82 32 -31 2 -56 8 -56 13 0 14 77 10 114 -5z
m554 -431 c-3 -3 -9 2 -12 12 -6 14 -5 15 5 6 7 -7 10 -15 7 -18z m-298 -210
c0 -5 -36 26 -80 70 -44 44 -80 84 -80 89 0 6 36 -26 80 -70 44 -43 80 -83 80
-89z m150 133 c0 -12 -6 -9 -26 13 -19 22 -19 22 4 8 12 -8 22 -17 22 -21z
m-436 -183 c9 -14 15 -25 13 -25 -2 0 -14 11 -27 25 -13 14 -19 25 -13 25 6 0
18 -11 27 -25z m346 0 c13 -14 19 -25 13 -25 -5 0 -20 11 -33 25 -13 14 -19
25 -13 25 5 0 20 -11 33 -25z m-255 -92 c11 -17 34 -41 52 -54 37 -28 53 -65
53 -124 0 -37 4 -44 38 -66 31 -20 37 -30 40 -65 4 -60 -26 -94 -84 -94 -58 0
-94 32 -94 85 0 35 10 49 64 93 20 16 21 72 2 115 -8 18 -36 55 -63 83 -26 28
-55 59 -63 70 -14 18 -14 18 10 3 14 -9 34 -29 45 -46z m313 -202 l-2 -216 -6
221 c-3 122 -9 228 -15 235 -5 8 -2 6 8 -4 15 -17 17 -42 15 -236z m-452 -207
c8 -31 -1 -54 -21 -54 -11 0 -15 11 -15 45 0 35 3 43 15 39 8 -4 18 -17 21
-30z"/>
<path d="M9052 6903 c-7 -3 -25 -18 -41 -34 -16 -16 -38 -29 -48 -28 -15 0
-14 2 4 9 12 5 27 18 33 29 11 21 10 21 -249 21 l-261 0 -36 -35 c-19 -19 -38
-35 -42 -35 -3 0 9 16 28 35 l34 35 -271 0 c-231 0 -287 -3 -373 -20 -117 -23
-229 -71 -288 -124 -99 -90 -96 -282 6 -384 50 -51 145 -97 229 -112 146 -27
485 -50 721 -50 l192 0 0 -47 c0 -27 1 -673 1 -1438 1 -765 5 -1421 9 -1460
13 -106 29 -162 66 -226 58 -99 131 -132 293 -133 88 0 114 4 153 21 25 12 50
27 55 35 4 7 17 18 28 24 37 20 101 141 113 213 21 125 21 178 24 1599 2 1001
6 1426 14 1433 6 5 201 10 435 12 267 2 444 8 479 15 160 33 227 69 268 142
22 39 25 58 26 145 1 80 -3 107 -18 135 -22 42 -75 100 -91 100 -6 0 -35 -24
-65 -52 -59 -59 -60 -52 -2 12 20 23 37 47 37 53 0 26 -227 97 -308 97 -34 0
-134 -83 -203 -168 l-44 -54 0 -127 c0 -120 -1 -129 -22 -147 l-22 -19 17 27
c14 22 17 52 17 151 0 143 -6 130 117 257 40 41 73 78 73 82 0 5 -108 8 -240
8 -233 0 -240 -1 -240 -20 0 -11 8 -28 18 -38 9 -10 45 -48 80 -84 l62 -66 0
-114 c0 -62 -4 -117 -8 -123 -4 -5 -23 -23 -42 -40 l-34 -30 37 47 37 46 0
102 0 101 -71 72 c-39 40 -78 88 -86 107 -8 19 -20 38 -27 43 -12 8 -552 8
-574 0z m218 -53 c0 -27 -3 -30 -30 -30 -27 0 -30 3 -30 30 0 27 3 30 30 30
27 0 30 -3 30 -30z m-1032 -32 c6 -6 12 -17 12 -24 0 -23 92 -18 120 6 32 28
38 25 10 -5 -19 -20 -33 -25 -72 -25 -42 0 -50 -3 -58 -24 -5 -14 -20 -32 -34
-41 -22 -15 -27 -15 -55 0 -35 17 -48 55 -35 93 14 39 74 49 112 20z m405 -23
c-3 -9 -8 -14 -10 -11 -3 3 -2 9 2 15 9 16 15 13 8 -4z m-23 -19 c0 -2 -18
-22 -40 -45 -22 -22 -40 -38 -40 -34 0 7 71 83 77 83 2 0 3 -2 3 -4z m1758
-154 c-25 -26 -48 -54 -51 -62 -4 -11 -6 -10 -6 5 -1 19 88 119 98 110 3 -3
-16 -27 -41 -53z m-1080 0 c23 -21 42 -41 42 -46 0 -5 -10 2 -23 15 -51 55
-48 54 -271 60 l-211 5 210 2 210 2 43 -38z m210 -34 c2 -14 -4 -31 -12 -38
-12 -9 -16 -31 -16 -82 0 -44 -4 -67 -10 -63 -5 3 -10 34 -10 68 0 51 -3 64
-20 75 -26 16 -26 47 1 66 29 20 63 6 67 -26z m-781 -114 c-3 -3 -12 -4 -19
-1 -8 3 -5 6 6 6 11 1 17 -2 13 -5z m430 0 c-3 -3 -12 -4 -19 -1 -8 3 -5 6 6
6 11 1 17 -2 13 -5z m58 -55 c4 -11 4 -23 1 -26 -3 -4 -6 1 -6 10 0 9 -10 26
-22 38 -23 21 -23 21 -1 10 12 -6 25 -20 28 -32z m1243 -32 c4 -31 -14 -43
-53 -33 -18 5 -25 13 -25 30 0 31 9 37 45 34 24 -2 31 -8 33 -31z m-2748 8
c16 -19 9 -49 -12 -53 -9 -2 -26 6 -38 18 -17 17 -19 24 -9 36 15 18 43 18 59
-1z m2500 -4 c21 -41 -24 -85 -54 -52 -19 21 -21 42 -4 59 18 18 46 14 58 -7z
m-838 -63 c2 -20 0 -34 -4 -32 -4 3 -7 26 -7 52 1 49 5 42 11 -20z m-762 22
c0 -35 -32 -59 -56 -39 -14 12 -19 51 -7 62 3 4 19 7 35 7 24 0 28 -4 28 -30z
m1275 -7 c-16 -16 -25 -21 -20 -13 14 25 38 50 43 45 3 -2 -8 -17 -23 -32z
m442 -25 c-2 -13 -4 -5 -4 17 -1 22 1 32 4 23 2 -10 2 -28 0 -40z m-632 22
c-3 -5 -11 -10 -16 -10 -6 0 -7 5 -4 10 3 6 11 10 16 10 6 0 7 -4 4 -10z m-52
-17 c-13 -2 -35 -2 -50 0 -16 2 -5 4 22 4 28 0 40 -2 28 -4z m-795 -112 c-2
-21 -8 -26 -32 -26 -37 0 -42 15 -15 49 17 22 24 24 36 15 7 -7 13 -24 11 -38z
m443 -501 c19 0 49 -41 49 -68 0 -20 -10 -38 -33 -59 l-34 -30 -39 26 c-42 29
-54 64 -34 101 13 23 48 41 68 34 8 -2 18 -4 23 -4z m-497 -496 c24 -23 20
-44 -8 -44 -29 0 -47 37 -25 51 18 11 15 12 33 -7z m596 -774 c0 -27 -3 -30
-30 -30 -27 0 -30 3 -30 30 0 27 3 30 30 30 27 0 30 -3 30 -30z m-308 -227
c22 -20 23 -41 1 -65 -20 -22 -41 -23 -65 -1 -22 20 -23 32 -2 61 18 26 41 28
66 5z m317 -247 c-2 -2 -17 -6 -34 -10 -22 -5 -26 -4 -15 4 14 9 59 15 49 6z
m-179 -140 c0 -2 -8 -10 -17 -17 -16 -13 -17 -12 -4 4 13 16 21 21 21 13z
m165 -414 c-3 -3 -11 0 -18 7 -9 10 -8 11 6 5 10 -3 15 -9 12 -12z m-538 -28
c7 -20 -8 -48 -29 -52 -8 -2 -25 6 -39 16 -20 17 -21 22 -10 36 18 21 70 21
78 0z m13 -288 c0 -39 -11 -50 -40 -41 -15 5 -20 15 -20 41 0 31 2 34 30 34
28 0 30 -3 30 -34z"/>
</g>
</svg>
